<?xml version="1.0" standalone="no"?>
<!DOCTYPE svg PUBLIC "-//W3C//DTD SVG 20010904//EN"
 "http://www.w3.org/TR/2001/REC-SVG-20010904/DTD/svg10.dtd">
<svg version="1.0" xmlns="http://www.w3.org/2000/svg"
 width="260.000000pt" height="260.000000pt" viewBox="0 0 260.000000 260.000000"
 preserveAspectRatio="xMidYMid meet">
<metadata>
Created by potrace 1.14, written by Peter Selinger 2001-2017
</metadata>
<g transform="translate(0.000000,260.000000) scale(0.100000,-0.100000)"
fill="#000000" stroke="none">
<path d="M625 2588 c-2 -7 -9 -33 -15 -58 -5 -25 -19 -79 -31 -120 -11 -41
-34 -127 -50 -190 -49 -187 -42 -176 -107 -199 -139 -49 -378 -144 -388 -154
-16 -17 -26 -94 -14 -102 6 -4 10 -53 10 -114 0 -84 -3 -111 -15 -121 -23 -19
-19 -73 8 -96 12 -11 62 -46 112 -78 50 -32 118 -77 152 -100 l62 -41 -129
-130 c-72 -72 -130 -138 -130 -146 0 -9 -7 -34 -16 -55 -12 -29 -15 -59 -11
-119 6 -105 46 -177 114 -206 25 -10 53 -19 63 -19 22 0 35 -16 20 -25 -16
-10 -11 -51 8 -68 25 -23 44 -21 88 5 53 31 113 22 240 -37 28 -13 82 -35 120
-48 38 -14 94 -34 124 -45 30 -11 71 -23 90 -26 19 -4 107 -33 195 -66 363
-134 418 -145 466 -93 41 46 74 95 104 153 24 47 102 152 128 171 4 3 28 37
52 75 24 38 52 80 62 93 18 24 30 41 141 197 34 49 68 96 75 105 18 24 216
129 223 118 16 -27 94 14 94 49 0 7 16 22 35 34 82 47 118 206 75 328 -11 30
-19 63 -20 72 0 9 -11 34 -25 54 -21 31 -25 48 -25 114 0 57 4 81 15 90 26 21
19 90 -12 122 -15 15 -35 28 -45 28 -11 0 -63 9 -116 19 -53 11 -160 32 -237
46 -273 51 -327 63 -334 71 -5 5 -22 47 -40 94 -18 47 -36 91 -40 99 -4 8 -65
33 -137 56 -71 23 -196 63 -279 90 -82 26 -222 73 -310 102 -88 30 -182 61
-210 69 -63 17 -134 18 -140 2z"/>
</g>
</svg>
